<svg width="1200" height="400" viewBox="0 0 1200 400" fill="none" xmlns="http://www.w3.org/2000/svg">
<g clip-path="url(#clip0_10_41)">
<rect width="1200" height="400" fill="black"/>
<path fill-rule="evenodd" clip-rule="evenodd" d="M614.742 163.161L614 140L613.378 159.409L613.5 159L614.742 163.161ZM619.043 177.565L620.972 184.028L624.139 140.531L619.043 177.565ZM622.547 189.303L624.522 195.918L634.167 142.12L622.547 189.303ZM624.972 197.426L629.899 213.928L642.839 213.617L686.085 172.094L640.064 210.936L678.906 164.915L637.197 208.354L671.015 158.525L634.075 206.087L662.5 152.995L630.734 204.157L653.453 148.386L627.209 202.588L643.975 144.748L624.972 197.426ZM642.922 213.615L649.374 213.46L692.475 179.985L642.922 213.615ZM651.478 213.41L658.143 213.25L698.004 188.5L651.478 213.41ZM664.437 213.098L670.811 212.945L702.614 197.547L664.437 213.098ZM687.187 212.552L687.207 212.551L683.129 215.366L706.252 207.025L687.187 212.552ZM671.23 223.583L665.55 227.504L708.88 216.833L671.23 223.583ZM661.297 230.441L655.532 234.421L710.469 226.861L661.297 230.441ZM654.423 235.187L640.034 245.122L646.18 262.596L692.475 294.015L644.913 257.075L698.004 285.5L646.843 253.734L702.614 276.453L648.412 250.209L706.252 266.975L649.604 246.54L708.88 257.167L650.406 242.766L710.469 247.139L650.809 238.929L711 237L654.423 235.187ZM646.708 264.098L648.996 270.603L686.085 301.906L646.708 264.098ZM650.832 275.822L653.065 282.172L678.906 309.085L650.832 275.822ZM658.069 296.399L659.053 299.199L657.383 297.923L671.015 315.475L658.069 296.399ZM645.131 288.564L639.855 284.533L662.5 321.004L645.131 288.564ZM635.301 281.054L629.869 276.905L653.453 325.614L635.301 281.054ZM628.498 275.857L613.5 264.4L599.786 274.876L584.025 329.252L604.46 272.604L593.833 331.88L608.234 273.406L603.861 333.469L612.071 273.809L614 334L615.929 273.809L624.139 333.469L619.766 273.406L634.167 331.88L623.54 272.604L643.975 329.252L628.498 275.857ZM598.718 275.692L593.15 279.945L574.547 325.614L598.718 275.692ZM589.047 283.08L583.561 287.271L565.5 321.004L589.047 283.08ZM572.076 296.045L568.122 299.065L556.985 315.475L572.076 296.045ZM573.357 283.816L575.454 277.853L549.094 309.085L573.357 283.816ZM577.582 271.803L579.782 265.547L541.915 301.906L577.582 271.803ZM580.506 263.487L582.639 257.423L535.525 294.015L580.506 263.487ZM582.686 257.29L586.966 245.122L572.621 235.217L517 237L577.19 238.929L517.531 247.139L577.594 242.766L519.12 257.167L578.396 246.54L521.748 266.975L579.588 250.209L525.386 276.453L581.157 253.734L529.996 285.5L582.686 257.29ZM571.219 234.249L565.585 230.359L517.531 226.861L571.219 234.249ZM560.895 227.121L555.42 223.341L519.12 216.833L560.895 227.121ZM542.777 214.611L539.793 212.551L540.904 212.578L521.748 207.025L542.777 214.611ZM557.242 212.97L563.625 213.124L525.386 197.547L557.242 212.97ZM569.897 213.275L576.569 213.435L529.996 188.5L569.897 213.275ZM578.658 213.485L585.114 213.64L535.525 179.985L578.658 213.485ZM585.187 213.642L541.915 172.094L587.936 210.936L549.094 164.915L590.803 208.354L556.985 158.525L593.925 206.087L565.5 152.995L597.266 204.157L574.547 148.386L600.602 202.2L597.101 213.928L585.187 213.642ZM600.641 202.072L584.025 144.748L602.481 195.909L600.641 202.072ZM603.103 193.825L593.833 142.12L605.001 187.467L603.103 193.825ZM606.832 181.335L603.861 140.531L608.642 175.272L606.832 181.335Z" fill="#0994CF"/>
<circle cx="1142" cy="-6" r="109" fill="#0994CF"/>
<g filter="url(#filter0_f_10_41)">
<path d="M1261 291C1261 276.686 1258.18 262.512 1252.7 249.288C1247.23 236.063 1239.2 224.047 1229.07 213.925C1218.95 203.804 1206.94 195.775 1193.71 190.297C1180.49 184.819 1166.31 182 1152 182C1137.69 182 1123.51 184.819 1110.29 190.297C1097.06 195.775 1085.05 203.804 1074.93 213.925C1064.8 224.047 1056.77 236.063 1051.3 249.288C1045.82 262.512 1043 276.686 1043 291L1152 291H1261Z" fill="white"/>
</g>
<g filter="url(#filter1_f_10_41)">
<path fill-rule="evenodd" clip-rule="evenodd" d="M1234.7 246.472C1240.18 256.785 1243 267.838 1243 279H1134L1134 194C1148.31 194 1162.49 196.199 1175.71 200.47C1188.94 204.742 1200.95 211.003 1211.07 218.896C1221.2 226.789 1229.23 236.159 1234.7 246.472Z" fill="#41B5E6"/>
</g>
<path d="M801.235 150.389C781.538 150.237 762.063 146.206 743.923 138.528C725.782 130.849 709.332 119.673 695.511 105.637C681.691 91.6014 670.77 74.9808 663.372 56.7243C655.975 38.4678 652.245 18.933 652.398 -0.764675L802.393 0.393184L801.235 150.389Z" fill="white"/>
<path d="M895 361.947C928.446 362.191 996.07 341.586 999 257.215V153.215C969.216 150.773 906.718 168.155 895 257.215V361.947Z" fill="white"/>
</g>
<defs>
<filter id="filter0_f_10_41" x="1039" y="178" width="226" height="117" filterUnits="userSpaceOnUse" color-interpolation-filters="sRGB">
<feFlood flood-opacity="0" result="BackgroundImageFix"/>
<feBlend mode="normal" in="SourceGraphic" in2="BackgroundImageFix" result="shape"/>
<feGaussianBlur stdDeviation="2" result="effect1_foregroundBlur_10_41"/>
</filter>
<filter id="filter1_f_10_41" x="1084" y="144" width="209" height="185" filterUnits="userSpaceOnUse" color-interpolation-filters="sRGB">
<feFlood flood-opacity="0" result="BackgroundImageFix"/>
<feBlend mode="normal" in="SourceGraphic" in2="BackgroundImageFix" result="shape"/>
<feGaussianBlur stdDeviation="25" result="effect1_foregroundBlur_10_41"/>
</filter>
<clipPath id="clip0_10_41">
<rect width="1200" height="400" fill="white"/>
</clipPath>
</defs>
</svg>
